<svg width="65" height="64" viewBox="0 0 65 64" fill="none" xmlns="http://www.w3.org/2000/svg">
<path d="M10.8867 38H26.4437L24.1937 44H21.8867V46H43.8867V44H41.5797L39.3297 38H54.8867C55.9476 38 56.965 37.5786 57.7151 36.8284C58.4653 36.0783 58.8867 35.0609 58.8867 34V6C58.8867 4.93913 58.4653 3.92172 57.7151 3.17157C56.965 2.42143 55.9476 2 54.8867 2H10.8867C9.82585 2 8.80844 2.42143 8.05829 3.17157C7.30815 3.92172 6.88672 4.93913 6.88672 6V34C6.88672 35.0609 7.30815 36.0783 8.05829 36.8284C8.80844 37.5786 9.82585 38 10.8867 38ZM39.4437 44H26.3297L28.5797 38H37.1937L39.4437 44ZM56.8867 34C56.8867 34.5304 56.676 35.0391 56.3009 35.4142C55.9259 35.7893 55.4172 36 54.8867 36H10.8867C10.3563 36 9.84758 35.7893 9.47251 35.4142C9.09743 35.0391 8.88672 34.5304 8.88672 34V32H56.8867V34ZM8.88672 6C8.88672 5.46957 9.09743 4.96086 9.47251 4.58579C9.84758 4.21071 10.3563 4 10.8867 4H54.8867C55.4172 4 55.9259 4.21071 56.3009 4.58579C56.676 4.96086 56.8867 5.46957 56.8867 6V30H8.88672V6Z" fill="#82170F"/>
<path d="M11.8867 48C11.6215 48 11.3671 48.1054 11.1796 48.2929C10.9921 48.4804 10.8867 48.7348 10.8867 49V61C10.8867 61.2652 10.9921 61.5196 11.1796 61.7071C11.3671 61.8946 11.6215 62 11.8867 62H39.8867C40.1519 62 40.4063 61.8946 40.5938 61.7071C40.7814 61.5196 40.8867 61.2652 40.8867 61V49C40.8867 48.7348 40.7814 48.4804 40.5938 48.2929C40.4063 48.1054 40.1519 48 39.8867 48H11.8867ZM38.8867 60H12.8867V50H38.8867V60Z" fill="#82170F"/>
<path d="M16.8867 56H14.8867V58H16.8867V56Z" fill="#82170F"/>
<path d="M36.8867 56H34.8867V58H36.8867V56Z" fill="#82170F"/>
<path d="M16.8867 52H14.8867V54H16.8867V52Z" fill="#82170F"/>
<path d="M20.8867 52H18.8867V54H20.8867V52Z" fill="#82170F"/>
<path d="M24.8867 52H22.8867V54H24.8867V52Z" fill="#82170F"/>
<path d="M28.8867 52H26.8867V54H28.8867V52Z" fill="#82170F"/>
<path d="M32.8867 52H30.8867V54H32.8867V52Z" fill="#82170F"/>
<path d="M36.8867 52H34.8867V54H36.8867V52Z" fill="#82170F"/>
<path d="M32.8867 56H18.8867V58H32.8867V56Z" fill="#82170F"/>
<path d="M44.8867 53V57C44.8867 58.3261 45.4135 59.5979 46.3512 60.5355C47.2889 61.4732 48.5606 62 49.8867 62C51.2128 62 52.4846 61.4732 53.4223 60.5355C54.3599 59.5979 54.8867 58.3261 54.8867 57V53C54.8867 51.6739 54.3599 50.4021 53.4223 49.4645C52.4846 48.5268 51.2128 48 49.8867 48C48.5606 48 47.2889 48.5268 46.3512 49.4645C45.4135 50.4021 44.8867 51.6739 44.8867 53ZM52.8867 53V57C52.8867 57.7956 52.5706 58.5587 52.008 59.1213C51.4454 59.6839 50.6824 60 49.8867 60C49.0911 60 48.328 59.6839 47.7654 59.1213C47.2028 58.5587 46.8867 57.7956 46.8867 57V53C46.8893 52.3817 47.0828 51.7794 47.4408 51.2753C47.7988 50.7712 48.3038 50.3901 48.8867 50.184V53H50.8867V50.184C51.4696 50.3901 51.9746 50.7712 52.3326 51.2753C52.6906 51.7794 52.8842 52.3817 52.8867 53Z" fill="#82170F"/>
<path d="M37.1796 12.2925L27.1797 22.2924L28.5939 23.7066L38.5938 13.7067L37.1796 12.2925Z" fill="#82170F"/>
<path d="M32.1795 11.2928L26.1797 17.2926L27.5939 18.7068L33.5937 12.707L32.1795 11.2928Z" fill="#82170F"/>
<path d="M38.1795 17.2928L32.1797 23.2926L33.5939 24.7068L39.5937 18.707L38.1795 17.2928Z" fill="#82170F"/>
</svg>
