<svg width="65" height="64" viewBox="0 0 65 64" fill="none" xmlns="http://www.w3.org/2000/svg">
<path d="M11.2188 9V61C11.2188 61.2652 11.3241 61.5196 11.5116 61.7071C11.6992 61.8946 11.9535 62 12.2188 62H50.2188C50.484 62 50.7383 61.8946 50.9259 61.7071C51.1134 61.5196 51.2188 61.2652 51.2188 61V19C51.2188 18.978 51.2077 18.959 51.2057 18.937C51.2008 18.8494 51.1836 18.7629 51.1548 18.68C51.1438 18.648 51.1357 18.617 51.1217 18.586C51.0731 18.4772 51.0053 18.378 50.9217 18.293L40.9217 8.293C40.8369 8.20879 40.7372 8.14098 40.6278 8.093C40.5977 8.08036 40.567 8.06935 40.5358 8.06C40.4521 8.03121 40.365 8.01372 40.2767 8.008C40.2597 8.011 40.2397 8 40.2188 8H12.2188C11.9535 8 11.6992 8.10536 11.5116 8.29289C11.3241 8.48043 11.2188 8.73478 11.2188 9ZM47.8047 18H41.2188V11.414L47.8047 18ZM13.2188 10H39.2188V19C39.2188 19.2652 39.3241 19.5196 39.5116 19.7071C39.6992 19.8946 39.9535 20 40.2188 20H49.2188V60H13.2188V10Z" fill="#82170F"/>
<path d="M53.2188 54V56H56.2188C56.484 56 56.7383 55.8946 56.9259 55.7071C57.1134 55.5196 57.2188 55.2652 57.2188 55V3C57.2188 2.73478 57.1134 2.48043 56.9259 2.29289C56.7383 2.10536 56.484 2 56.2188 2H18.2188C17.9535 2 17.6992 2.10536 17.5116 2.29289C17.3241 2.48043 17.2188 2.73478 17.2188 3V6H19.2188V4H55.2188V54H53.2188Z" fill="#82170F"/>
<path d="M43.2188 22H19.2188V24H43.2188V22Z" fill="#82170F"/>
<path d="M27.2188 16H19.2188V18H27.2188V16Z" fill="#82170F"/>
<path d="M35.2188 28H19.2188V30H35.2188V28Z" fill="#82170F"/>
<path d="M43.2188 28H37.2188V30H43.2188V28Z" fill="#82170F"/>
<path d="M43.2188 34H19.2188V36H43.2188V34Z" fill="#82170F"/>
<path d="M43.2188 46H19.2188V48H43.2188V46Z" fill="#82170F"/>
<path d="M43.2188 40H28.2188V42H43.2188V40Z" fill="#82170F"/>
<path d="M26.2188 40H19.2188V42H26.2188V40Z" fill="#82170F"/>
<path d="M23.2188 52H19.2188V54H23.2188V52Z" fill="#82170F"/>
<path d="M43.2188 52H25.2188V54H43.2188V52Z" fill="#82170F"/>
</svg>
