<svg width="33" height="33" viewBox="0 0 33 33" fill="none" xmlns="http://www.w3.org/2000/svg">
<path d="M24.5534 3.19926C25.9307 3.19926 27.1084 3.68827 28.0864 4.66628C29.0644 5.64429 29.5534 6.82195 29.5534 8.19926V24.8659C29.5534 26.2432 29.0644 27.4209 28.0864 28.3989C27.1084 29.3769 25.9307 29.8659 24.5534 29.8659H21.2895V19.5361H24.7444L25.2652 15.5083H21.2895V12.9388C21.2895 12.2907 21.4255 11.8046 21.6975 11.4805C21.9695 11.1564 22.499 10.9944 23.286 10.9944L25.4041 10.977V7.38329C24.6749 7.27913 23.6448 7.22704 22.3138 7.22704C20.7397 7.22704 19.481 7.69001 18.5378 8.61593C17.5945 9.54186 17.1228 10.8497 17.1228 12.5395V15.5083H13.6506V19.5361H17.1228V29.8659H7.88672C6.5094 29.8659 5.33174 29.3769 4.35373 28.3989C3.37572 27.4209 2.88672 26.2432 2.88672 24.8659V8.19926C2.88672 6.82195 3.37572 5.64429 4.35373 4.66628C5.33174 3.68827 6.5094 3.19926 7.88672 3.19926H24.5534Z" fill="white"/>
</svg>
