<svg width="33" height="33" viewBox="0 0 33 33" fill="none" xmlns="http://www.w3.org/2000/svg">
<g clip-path="url(#clip0_1248_35620)">
<path fill-rule="evenodd" clip-rule="evenodd" d="M6.88672 3.16675C4.67758 3.16675 2.88672 4.95761 2.88672 7.16674V25.8334C2.88672 28.0426 4.67758 29.8334 6.88672 29.8334H25.5534C27.7625 29.8334 29.5534 28.0426 29.5534 25.8334V7.16675C29.5534 4.95761 27.7625 3.16675 25.5534 3.16675H6.88672ZM22.4423 11.1667H9.99783C9.01599 11.1667 8.22005 11.9933 8.22005 13.0129V21.3206C8.22005 22.3402 9.01599 23.1667 9.99783 23.1667H22.4423C23.4241 23.1667 24.2201 22.3402 24.2201 21.3206V13.0129C24.2201 11.9933 23.4241 11.1667 22.4423 11.1667ZM16.2201 15.9189L21.6818 12.8649C22.0059 12.6836 22.4103 12.8096 22.5848 13.1462C22.7594 13.4829 22.6381 13.9027 22.3139 14.084L16.5361 17.3148C16.3388 17.4251 16.1013 17.4251 15.904 17.3148L10.1262 14.084C9.80203 13.9027 9.68073 13.4829 9.85529 13.1462C10.0299 12.8096 10.4342 12.6836 10.7583 12.8649L16.2201 15.9189Z" fill="white"/>
<path fill-rule="evenodd" clip-rule="evenodd" d="M9.99653 11.1667H22.441C23.4228 11.1667 24.2188 11.9933 24.2188 13.0129V21.3206C24.2188 22.3402 23.4228 23.1667 22.441 23.1667H9.99653C9.01469 23.1667 8.21875 22.3402 8.21875 21.3206V13.0129C8.21875 11.9933 9.01469 11.1667 9.99653 11.1667ZM21.6805 12.8649L16.2188 15.9189L10.757 12.8649C10.4329 12.6836 10.0286 12.8096 9.85399 13.1462C9.67943 13.4829 9.80072 13.9027 10.1249 14.084L15.9027 17.3148C16.1 17.4251 16.3375 17.4251 16.5348 17.3148L22.3126 14.084C22.6368 13.9027 22.7581 13.4829 22.5835 13.1462C22.4089 12.8096 22.0046 12.6836 21.6805 12.8649Z" fill="#82170F"/>
</g>
<defs>
<clipPath id="clip0_1248_35620">
<rect width="32" height="32" fill="white" transform="translate(0.21875 0.5)"/>
</clipPath>
</defs>
</svg>
