<svg width="33" height="33" viewBox="0 0 33 33" fill="none" xmlns="http://www.w3.org/2000/svg">
<path d="M18.5934 13.1134C18.5268 13.1134 18.461 13.1265 18.3995 13.152C18.338 13.1774 18.2822 13.2148 18.2351 13.2618C18.1881 13.3089 18.1507 13.3647 18.1253 13.4262C18.0998 13.4877 18.0867 13.5535 18.0867 13.6201V15.8467L16.2201 13.3667C16.1735 13.2913 16.109 13.2286 16.0321 13.1844C15.9553 13.1401 15.8687 13.1157 15.7801 13.1134C15.7135 13.1134 15.6476 13.1265 15.5862 13.152C15.5247 13.1774 15.4688 13.2148 15.4218 13.2618C15.3747 13.3089 15.3374 13.3647 15.312 13.4262C15.2865 13.4877 15.2734 13.5535 15.2734 13.6201V17.4067C15.2734 17.4733 15.2865 17.5392 15.312 17.6006C15.3374 17.6621 15.3747 17.718 15.4218 17.765C15.4688 17.8121 15.5247 17.8494 15.5862 17.8748C15.6476 17.9003 15.7135 17.9134 15.7801 17.9134C15.8466 17.9134 15.9125 17.9003 15.9739 17.8748C16.0354 17.8494 16.0913 17.8121 16.1383 17.765C16.1854 17.718 16.2227 17.6621 16.2482 17.6006C16.2736 17.5392 16.2867 17.4733 16.2867 17.4067V15.1667L18.1401 17.7134C18.1872 17.7844 18.2581 17.8364 18.3401 17.8601C18.4015 17.8739 18.4653 17.8739 18.5267 17.8601C18.5852 17.8813 18.6475 17.89 18.7096 17.8854C18.7716 17.8808 18.832 17.8631 18.8867 17.8334L19.0201 17.7401C19.1136 17.6436 19.1662 17.5145 19.1667 17.3801V13.6201C19.1674 13.5475 19.1524 13.4757 19.1229 13.4095C19.0933 13.3432 19.0499 13.284 18.9956 13.236C18.9412 13.188 18.8772 13.1522 18.8078 13.131C18.7384 13.1099 18.6653 13.1039 18.5934 13.1134ZM12.4867 16.8601H11.0734V13.6201C11.0734 13.4857 11.02 13.3568 10.925 13.2618C10.83 13.1668 10.7011 13.1134 10.5667 13.1134C10.4323 13.1134 10.3035 13.1668 10.2085 13.2618C10.1134 13.3568 10.0601 13.4857 10.0601 13.6201V17.4067C10.0601 17.5411 10.1134 17.67 10.2085 17.765C10.3035 17.86 10.4323 17.9134 10.5667 17.9134H12.4867C12.6224 17.9135 12.7526 17.8605 12.8498 17.7659C12.9469 17.6712 13.0032 17.5423 13.0067 17.4067C13.0103 17.3363 12.9996 17.2658 12.9751 17.1996C12.9506 17.1334 12.9128 17.0728 12.8642 17.0217C12.8155 16.9705 12.757 16.9298 12.6921 16.9021C12.6272 16.8743 12.5573 16.86 12.4867 16.8601ZM13.9667 13.1134C13.8311 13.1134 13.7008 13.1663 13.6037 13.261C13.5065 13.3556 13.4502 13.4845 13.4467 13.6201V17.4067C13.4502 17.5423 13.5065 17.6712 13.6037 17.7659C13.7008 17.8605 13.8311 17.9135 13.9667 17.9134C14.1011 17.9134 14.23 17.86 14.325 17.765C14.42 17.67 14.4734 17.5411 14.4734 17.4067V13.6201C14.4734 13.4857 14.42 13.3568 14.325 13.2618C14.23 13.1668 14.1011 13.1134 13.9667 13.1134ZM24.1001 3.16675H8.34005C6.89482 3.17027 5.50979 3.74595 4.48785 4.76788C3.46592 5.78982 2.89024 7.17485 2.88672 8.62008V24.3801C2.89024 25.8253 3.46592 27.2103 4.48785 28.2323C5.50979 29.2542 6.89482 29.8299 8.34005 29.8334H24.1001C25.5453 29.8299 26.9303 29.2542 27.9523 28.2323C28.9742 27.2103 29.5499 25.8253 29.5534 24.3801V8.62008C29.5499 7.17485 28.9742 5.78982 27.9523 4.76788C26.9303 3.74595 25.5453 3.17027 24.1001 3.16675ZM24.5134 19.5401C24.4609 19.6195 24.403 19.6953 24.3401 19.7667C24.0221 20.158 23.6647 20.5155 23.2734 20.8334C20.6067 23.3267 16.1267 26.3134 15.5267 25.8467C14.9267 25.3801 16.3801 23.5001 14.8201 23.1801C14.7094 23.194 14.5974 23.194 14.4867 23.1801C9.90005 22.5401 6.48672 19.3267 6.48672 15.4734C6.48672 11.1401 10.8734 7.63341 16.2734 7.63341C21.6734 7.63341 26.0601 11.1401 26.0601 15.4734C26.0138 16.9638 25.4692 18.3956 24.5134 19.5401ZM22.2334 13.1267H20.2201C20.0857 13.1267 19.9568 13.1801 19.8618 13.2751C19.7668 13.3702 19.7134 13.499 19.7134 13.6334V17.4201C19.7134 17.4866 19.7265 17.5525 19.752 17.614C19.7774 17.6754 19.8147 17.7313 19.8618 17.7783C19.9088 17.8254 19.9647 17.8627 20.0262 17.8882C20.0876 17.9136 20.1535 17.9267 20.2201 17.9267H22.1934C22.2599 17.9267 22.3258 17.9136 22.3873 17.8882C22.4487 17.8627 22.5046 17.8254 22.5517 17.7783C22.5987 17.7313 22.636 17.6754 22.6615 17.614C22.6869 17.5525 22.7001 17.4866 22.7001 17.4201C22.7001 17.2857 22.6467 17.1568 22.5517 17.0618C22.4566 16.9668 22.3278 16.9134 22.1934 16.9134H20.8201V16.1134H22.2334C22.369 16.1099 22.4978 16.0536 22.5925 15.9565C22.6871 15.8593 22.7401 15.729 22.7401 15.5934C22.7401 15.459 22.6867 15.3302 22.5917 15.2351C22.4966 15.1401 22.3678 15.0867 22.2334 15.0867H20.8201V14.2734H22.2334C22.3678 14.2734 22.4966 14.22 22.5917 14.125C22.6867 14.03 22.7401 13.9011 22.7401 13.7667C22.761 13.6901 22.7637 13.6096 22.7478 13.5318C22.7319 13.4539 22.6979 13.3809 22.6486 13.3186C22.5993 13.2563 22.536 13.2065 22.4639 13.1732C22.3917 13.1398 22.3128 13.1239 22.2334 13.1267Z" fill="white"/>
</svg>
