<svg width="65" height="64" viewBox="0 0 65 64" fill="none" xmlns="http://www.w3.org/2000/svg">
<path d="M62.4318 27.546C62.376 27.4324 62.299 27.3305 62.2048 27.246L55.5508 21.507V16C55.5508 15.978 55.5398 15.959 55.5378 15.937C55.5328 15.8494 55.5156 15.7629 55.4868 15.68C55.4758 15.648 55.4678 15.617 55.4538 15.586C55.4051 15.4772 55.3374 15.378 55.2538 15.293L47.2538 7.29301C47.1686 7.20918 47.069 7.14142 46.9598 7.09301C46.9298 7.08001 46.9008 7.07201 46.8698 7.06101C46.7843 7.03125 46.6951 7.01374 46.6048 7.00901C46.5888 7.01001 46.5708 7.00001 46.5508 7.00001H38.7218L33.2038 2.24301C33.0222 2.08648 32.7905 2.00037 32.5508 2.00037C32.3111 2.00037 32.0793 2.08648 31.8978 2.24301L26.3798 7.00001H10.5508C10.2856 7.00001 10.0312 7.10537 9.84367 7.2929C9.65614 7.48044 9.55078 7.73479 9.55078 8.00001V21.507L2.89778 27.243C2.8036 27.3275 2.72654 27.4294 2.67078 27.543C2.65678 27.571 2.64478 27.597 2.63278 27.626C2.58142 27.7442 2.55357 27.8712 2.55078 28V61C2.55078 61.027 2.56378 61.049 2.56578 61.075C2.56706 61.1424 2.57544 61.2094 2.59078 61.275C2.59944 61.2952 2.60912 61.3148 2.61978 61.334C2.63572 61.3754 2.65478 61.4155 2.67678 61.454C2.71136 61.5219 2.754 61.5853 2.80378 61.643C2.83165 61.6754 2.86136 61.7061 2.89278 61.735C2.9535 61.788 3.02071 61.833 3.09278 61.869C3.12482 61.8893 3.15824 61.9073 3.19278 61.923C3.30636 61.9705 3.42773 61.9966 3.55078 62H61.5508C61.6735 61.9982 61.7949 61.9738 61.9088 61.928C61.9433 61.9123 61.9767 61.8943 62.0088 61.874C62.0809 61.838 62.1481 61.793 62.2088 61.74C62.2402 61.7111 62.2699 61.6804 62.2978 61.648C62.3476 61.5903 62.3902 61.5269 62.4248 61.459C62.4468 61.4205 62.4658 61.3804 62.4818 61.339C62.4924 61.3198 62.5021 61.3002 62.5108 61.28C62.5261 61.2144 62.5345 61.1474 62.5358 61.08C62.5358 61.054 62.5508 61.032 62.5508 61.005V28C62.5479 27.8723 62.5204 27.7463 62.4698 27.629C62.4578 27.6 62.4508 27.574 62.4318 27.546ZM60.5508 30.182V59.182L41.1998 46.864L60.5508 30.182ZM60.0198 28L55.5508 31.852V24.152L60.0198 28ZM52.1368 15H47.5508V10.414L52.1368 15ZM32.5508 4.32001L35.6588 7.00001H29.4428L32.5508 4.32001ZM45.5508 9.00001V16C45.5508 16.2652 45.6561 16.5196 45.8437 16.7071C46.0312 16.8947 46.2856 17 46.5508 17H53.5508V33.576L39.1398 46H25.9618L11.5508 33.576V9.00001H45.5508ZM23.9018 46.864L4.55078 59.178V30.178L23.9018 46.864ZM9.55078 31.852L5.08178 28L9.55078 24.148V31.852ZM6.98478 60L25.8418 48H39.2598L58.1168 60H6.98478Z" fill="#82170F"/>
<path d="M34.5508 22H17.5508V24H34.5508V22Z" fill="#82170F"/>
<path d="M39.5508 28H17.5508V30H39.5508V28Z" fill="#82170F"/>
<path d="M27.5508 34H17.5508V36H27.5508V34Z" fill="#82170F"/>
<path d="M47.5508 22H36.5508V24H47.5508V22Z" fill="#82170F"/>
<path d="M47.5508 28H41.5508V30H47.5508V28Z" fill="#82170F"/>
<path d="M25.5508 16H17.5508V18H25.5508V16Z" fill="#82170F"/>
<path d="M47.5508 34H29.5508V36H47.5508V34Z" fill="#82170F"/>
<path d="M40.5508 40H24.5508V42H40.5508V40Z" fill="#82170F"/>
</svg>
