<svg width="33" height="33" viewBox="0 0 33 33" fill="none" xmlns="http://www.w3.org/2000/svg">
<g clip-path="url(#clip0_1248_35628)">
<path d="M2.88672 7.16674C2.88672 4.95761 4.67758 3.16675 6.88672 3.16675H25.5534C27.7625 3.16675 29.5534 4.95761 29.5534 7.16675V25.8334C29.5534 28.0426 27.7625 29.8334 25.5534 29.8334H6.88672C4.67758 29.8334 2.88672 28.0426 2.88672 25.8334V7.16674Z" fill="white"/>
<path d="M13.4532 18.4827C14.2039 18.8581 15.1106 18.711 15.7041 18.1175L17.4877 16.3339C18.0812 15.7404 18.2283 14.8337 17.853 14.083C17.4776 13.3323 17.6247 12.4256 18.2182 11.8321L20.3416 9.70869C20.602 9.44834 21.0241 9.44834 21.2844 9.70869C21.3351 9.75936 21.3773 9.81786 21.4093 9.88195L22.2527 11.5688C23.0035 13.0702 22.7092 14.8836 21.5222 16.0706L18.8561 18.7367L16.1899 21.4029C14.8979 22.6949 12.9868 23.1461 11.2533 22.5682L9.44822 21.9666C9.09892 21.8501 8.91015 21.4726 9.02658 21.1233C9.05931 21.0251 9.11445 20.9359 9.18763 20.8627L11.2023 18.848C11.7958 18.2545 12.7025 18.1074 13.4532 18.4827Z" fill="#82170F"/>
</g>
<defs>
<clipPath id="clip0_1248_35628">
<rect width="32" height="32" fill="white" transform="translate(0.21875 0.5)"/>
</clipPath>
</defs>
</svg>
